# xmcd
#
# Track frame offsets:
#	150
#	15605
#	24633
#	38482
#	49232
#	60904
#	68583
#	95840
#	113852
#
# Disc length: 2239 seconds
#
# Revision: 0
# Processed by: cddbd v1.5.2PL0 Copyright (c) Steve Scherf et al.
# Submitted via: dBpowerAMP V4.0
#
DISCID=6c08bd09
DTITLE=Youri - Youri psycheblues
DYEAR=2007
DGENRE=Blues
TTITLE0=On the other side
TTITLE1=Ballad of Night
TTITLE2=Flammes
TTITLE3=One Night Time Blues
TTITLE4=Four Windows
TTITLE5=Prisoner Blues
TTITLE6=Fleurs du Perou
TTITLE7=Hard Time
TTITLE8=Sand of Fairy
EXTD=
EXTT0=
EXTT1=
EXTT2=
EXTT3=
EXTT4=
EXTT5=
EXTT6=
EXTT7=
EXTT8=
PLAYORDER=
